<svg xmlns="http://www.w3.org/2000/svg" version="1.1" xmlns:xlink="http://www.w3.org/1999/xlink" xmlns:svgjs="http://svgjs.com/svgjs" width="512" height="512" x="0" y="0" viewBox="0 0 512 512" style="enable-background:new 0 0 512 512" xml:space="preserve" class=""><g><path fill="#ff6a4d" d="M226 0c-24.814 0-45 20.186-45 45v16l30 15h30l30-15V45c0-24.814-20.186-45-45-45z" data-original="#ff6a4d" class=""></path><path fill="#e64d2e" d="M271 61V45c0-24.814-20.186-45-45-45v76h15z" data-original="#e64d2e"></path><path fill="#474f54" d="M0 452c6.951 34.232 38.716 60 75 60s69.049-25.768 76-60l-32.588-15H20.824z" data-original="#474f54" class=""></path><path fill="#f2f9ff" d="M75 482c-24.814 0-45-20.186-45-45s20.186-45 45-45 46 20.186 46 45-21.186 45-46 45z" data-original="#f2f9ff"></path><path fill="#ff9100" d="M151 182H60l-30 30v90l30 15h91l45-15v-81l-15-9z" data-original="#ff9100"></path><path fill="#fabe2c" d="M30 152v60h151l15-7.765L181 197v-45z" data-original="#fabe2c"></path><path fill="#ff6a4d" d="M241 452H0v-15c0-57.99 48.01-105 106-105l25-15h140v110z" data-original="#ff6a4d" class=""></path><path fill="#32393f" d="M0 302h211v30H0z" data-original="#32393f"></path><path fill="#575f64" d="M316 377.899v56.4L301 452h-60V332h-30c-16.5 0-30-13.5-30-30v-75h90v45c16.5 0 30 13.5 30 30v60z" data-original="#575f64"></path><path fill="#474f54" d="M316 377.899v56.4L301 452h-60V332h-15V227h45v45c16.5 0 30 13.5 30 30v60z" data-original="#474f54" class=""></path><path fill="#ff6a4d" d="M271 212v-15c0-24.814-20.186-45-45-45s-45 20.186-45 45v30c0 24.853 20.147 45 45 45h121c24.853 0 45-20.147 45-45v-15z" data-original="#ff6a4d" class=""></path><path fill="#e64d2e" d="M392 227v-15H271v-15c0-24.814-20.186-45-45-45v120h121c24.853 0 45-20.147 45-45z" data-original="#e64d2e"></path><path fill="#ffe1ba" d="M241 76h-30l-30 15v15c0 24.814 20.186 46 45 46s45-21.186 45-46V91z" data-original="#ffe1ba"></path><path fill="#ffbfab" d="M271 106V91l-30-15h-15v76c24.814 0 45-21.186 45-46z" data-original="#ffbfab" class=""></path><path fill="#474f54" d="M226 61h-45v30h120V61z" data-original="#474f54" class=""></path><path fill="#32393f" d="M226 61h75v30h-75z" data-original="#32393f"></path><path fill="#e64d2e" d="M433.338 305.354a92355.527 92355.527 0 0 0-11.484-80.479L362 197v120c0 23.663-20.385 45-46 45h-15v90h181l30-15v-30c0-47.988-33.105-89.824-78.662-101.646z" data-original="#e64d2e"></path><path fill="#ff6a4d" d="M452 242h-45c-24.814 0-45-20.186-45-45s20.186-45 45-45h45z" data-original="#ff6a4d" class=""></path><path fill="#32393f" d="m441.508 362.456-4.362 16.668-25.351-12.453C382.865 377.082 362 404.53 362 437c0 41.353 33.647 75 75 75s75-33.647 75-75c0-39.809-31.273-72.16-70.492-74.544z" data-original="#32393f"></path><path fill="#dfe7f4" d="M437 392c-24.814 0-45 20.186-45 45s20.186 45 45 45 45-20.186 45-45-20.186-45-45-45z" data-original="#dfe7f4"></path><path fill="#c7cfe1" d="m451.854 434.876-10.345-72.42c-1.523-.092-2.965-.456-4.509-.456-8.882 0-17.291 1.824-25.204 4.671l10.351 72.453z" data-original="#c7cfe1"></path></g></svg>